# xmcd
#
# Track frame offsets: 
#        150
#        21762
#        43739
#        59656
#        96755
#        117310
#        147513
#        156594
#
# Disc length: 2620 seconds
#
# Revision: 0
# Processed by: cddbd v1.5.1PL0 Copyright (c) Steve Scherf et al.
# Submitted via: ExactAudioCopy v0.95a4
#
DISCID=750a3a08
DTITLE=James Cotton - Tucson, AZ (April 18, 1985)
DYEAR=1985
DGENRE=Blues
TTITLE0=Fever
TTITLE1=Talk to Me
TTITLE2=Mojo Hand
TTITLE3=Stormy Monday
TTITLE4=Made Your Move Too Soon
TTITLE5=Easy Lovin'
TTITLE6=Rocket 88
TTITLE7=Someone Else Is Steppin' In (Slippin' Out, Slippin' In)
EXTD=
EXTT0=
EXTT1=
EXTT2=
EXTT3=
EXTT4=
EXTT5=
EXTT6=
EXTT7=
PLAYORDER=
